<?xml version="1.0" encoding="utf-8"?>
<!-- Generator: Adobe Illustrator 23.0.4, SVG Export Plug-In . SVG Version: 6.00 Build 0)  -->
<svg version="1.1" id="Layer_1" xmlns="http://www.w3.org/2000/svg" xmlns:xlink="http://www.w3.org/1999/xlink" x="0px" y="0px"
	 viewBox="0 0 637.3 246.5" style="enable-background:new 0 0 637.3 246.5;" xml:space="preserve">
<style type="text/css">
	.st0{font-family:'HelveticaNeue';}
	.st1{font-size:107.6237px;}
	.st2{letter-spacing:-6.4;}
	.st3{fill:#010101;stroke:#FFFFFF;stroke-miterlimit:10;}
	.st4{fill:#FFFFFF;stroke:#010101;stroke-miterlimit:10;}
</style>
<text transform="matrix(0.9401 0 0 1 160.4804 168.7624)" class="st0 st1 st2">RuckSack</text>
<g>
	<path class="st3" d="M157.4,107.3c0,0.1,0,0.2,0,0.3v53.6c0,5.7-4.6,10.4-10.4,10.4H81c-5.7,0-10.4-4.6-10.4-10.4v-53.6
		c0-0.1,0-0.2,0-0.3c0-0.5,0-1,0-1.4c0-24,19.4-43.4,43.4-43.4s43.4,19.4,43.4,43.4C157.5,106.3,157.5,106.8,157.4,107.3z"/>
	<path class="st4" d="M142.9,154.2H85.2c-1.8,0-3.3-1.5-3.3-3.3v-25c0-1.8,1.5-3.3,3.3-3.3h57.7c1.8,0,3.3,1.5,3.3,3.3v25
		C146.3,152.7,144.8,154.2,142.9,154.2z"/>
</g>
</svg>
